<svg width="50" height="50" viewBox="0 0 50 50" fill="none" xmlns="http://www.w3.org/2000/svg">
<circle cx="25" cy="25" r="23" stroke="#37456B" stroke-width="4"/>
<rect x="11.8528" y="19.1168" width="26.6074" height="14.1565" fill="#37456B"/>
<path d="M11 18.6051C11 17.6632 11.7636 16.8995 12.7056 16.8995H37.6074C38.5494 16.8995 39.313 17.6632 39.313 18.6051V18.6051H11V18.6051Z" fill="#37456B"/>
<path d="M19.0164 16.3878C19.0164 15.0691 20.0854 14 21.4042 14H28.9089C30.2276 14 31.2967 15.0691 31.2967 16.3878V16.3878H19.0164V16.3878Z" fill="#37456B"/>
<path d="M11 34.6378C11 34.1668 11.3818 33.785 11.8528 33.785H38.4602C38.9312 33.785 39.313 34.1668 39.313 34.6378V34.6378C39.313 35.1088 38.9312 35.4906 38.4602 35.4906H11.8528C11.3818 35.4906 11 35.1088 11 34.6378V34.6378Z" fill="#37456B"/>
<path fill-rule="evenodd" clip-rule="evenodd" d="M16.5181 14.5267C15.8116 14.5267 15.2389 15.0995 15.2389 15.8059V16.0618H14.8978V16.4029H18.1385V16.0618H17.7973V15.8059C17.7973 15.0995 17.2246 14.5267 16.5181 14.5267Z" fill="#4CC7B5"/>
<path fill-rule="evenodd" clip-rule="evenodd" d="M33.7949 14.5267C33.0884 14.5267 32.5157 15.0995 32.5157 15.8059V16.0618H32.1746V16.4029H35.4152V16.0618H35.0741V15.8059C35.0741 15.0995 34.5014 14.5267 33.7949 14.5267Z" fill="#B5252F"/>
<rect x="15.9462" y="22.0163" width="1.19392" height="4.26401" rx="0.596962" fill="#4CC7B5"/>
<rect x="14.4112" y="24.7453" width="1.19392" height="4.26401" rx="0.596962" transform="rotate(-90 14.4112 24.7453)" fill="#4CC7B5"/>
<rect x="31.6379" y="24.7453" width="1.19392" height="4.26401" rx="0.596962" transform="rotate(-90 31.6379 24.7453)" fill="#B5252F"/>
<path fill-rule="evenodd" clip-rule="evenodd" d="M23.1951 20.5666H28.5677L26.1698 23.5865L26.1699 23.5865L28.2768 25.0613L23.2804 31.3119H23.1951L24.9057 26.7469L21.956 24.956L21.956 24.956L23.1951 20.5666Z" fill="#F09C2E"/>
</svg>
